<?xml version="1.0" encoding="UTF-8" standalone="no"?>
<!-- Created with Inkscape (http://www.inkscape.org/) -->

<svg
   xmlns:dc="http://purl.org/dc/elements/1.1/"
   xmlns:cc="http://creativecommons.org/ns#"
   xmlns:rdf="http://www.w3.org/1999/02/22-rdf-syntax-ns#"
   xmlns:svg="http://www.w3.org/2000/svg"
   xmlns="http://www.w3.org/2000/svg"
   version="1.1"
   width="8.2677202in"
   height="11.6924in"
   viewBox="0 0 8268 11692"
   id="svg2"
   xml:space="preserve"
   style="fill-rule:evenodd"><metadata
   id="metadata35"><rdf:RDF><cc:Work
       rdf:about=""><dc:format>image/svg+xml</dc:format><dc:type
         rdf:resource="http://purl.org/dc/dcmitype/StillImage" /><dc:title></dc:title></cc:Work></rdf:RDF></metadata>
 <defs
   id="defs4">
  <style
   type="text/css"
   id="style6" />
 </defs>
 <g
   id="Слой_x0020_1">
  <metadata
   id="CorelCorpID_0Corel-Layer" />
  <g
   id="_434945672">
   <polygon
   points="0,1 0,10569 8267,10569 8267,1 "
   id="polygon11"
   style="fill:#faf4e5" />
   <path
   d="m 6225,4469 c -92,-134 -98,-260 -18,-380 19,-23 43,-23 70,2 181,153 171,216 59,327 -17,17 -50,61 -70,70 -13,6 -27,-1 -41,-19 z m -2810,530 c 154,69 79,139 -135,202 -101,29 -199,42 -291,97 -190,114 -50,233 -138,346 -48,45 6,82 99,80 130,-4 258,-26 404,80 62,45 120,74 175,35 142,-169 206,-256 354,-37 119,177 217,157 168,-21 -11,-39 -77,-133 -103,-188 -13,-26 -28,-37 -24,-51 7,-27 18,-8 27,5 6,10 13,22 19,31 80,116 174,246 236,325 153,192 312,193 390,93 127,-164 101,-306 -51,-492 -86,-106 -212,-205 -361,-312 -513,-325 -347,47 -694,-385 -120,-217 26,-191 136,-104 158,125 262,99 154,-148 -97,-157 9,-183 160,-147 117,28 248,142 347,33 184,-124 293,142 744,39 73,-17 117,-41 181,-74 186,-93 472,-137 584,-308 50,-76 7,-114 33,-179 29,-72 140,-118 119,-221 -28,-129 -113,-115 -188,-140 -39,-13 -89,-52 -121,-79 -112,-94 -1,-207 -375,-383 -94,-44 -189,-66 -286,-102 -210,-78 -272,-190 -185,-336 24,-93 10,-194 -38,-266 -92,-139 -134,-222 -26,-205 316,17 343,-141 514,-211 -27,256 152,321 287,242 120,-70 216,-244 188,-480 -24,-202 -162,-347 -242,-429 -42,-44 -79,-105 -49,-169 111,-231 1092,-538 1416,-331 -404,-49 -822,19 -1264,294 348,-119 631,-167 806,-99 -280,27 -534,73 -734,160 -31,18 -40,35 -37,50 22,119 457,127 254,270 1473,-79 463,300 744,700 -133,-44 -26,177 -39,265 0,12 40,69 -18,141 -111,116 82,130 -32,253 -94,97 45,217 290,348 -188,97 -276,210 -244,341 89,-130 188,-200 282,-219 170,-34 315,96 346,259 14,78 16,182 -2,325 -1,10 -5,19 -4,29 6,71 -94,239 -118,-88 -115,-205 -310,-231 -187,-15 52,104 92,183 120,245 86,185 107,198 10,350 -21,34 -39,79 -63,135 -41,138 -220,62 -14,-165 -155,-24 -281,198 -429,83 -41,-83 -304,72 -219,194 39,53 149,106 118,159 -227,90 -26,219 91,177 94,-34 218,-96 359,-218 -102,110 -169,285 -253,323 -7,205 1,422 -201,661 -32,38 -64,27 -110,17 -88,-36 -105,19 -102,89 7,167 -17,240 -47,311 -48,114 -7,169 75,108 -15,10 165,-191 163,42 -12,132 15,269 18,385 14,224 -203,388 -304,582 -55,106 -49,181 -1,233 147,246 -101,263 23,557 21,38 53,54 63,114 24,107 89,176 240,161 L 6892,10567 1,10567 1,-1 1557,-1 c -13,22 -21,41 -26,56 -22,68 18,79 47,34 147,-32 62,27 116,34 13,-2 23,-12 33,-10 158,26 11,-44 132,-27 29,4 29,6 49,26 31,31 45,-2 35,-42 -9,-35 4,-63 36,-70 l 114,0 c 10,9 41,44 44,108 3,54 56,54 80,39 81,-48 23,-69 50,-108 12,-17 6,-30 33,-38 l 327,0 c 0,41 25,56 76,46 110,-15 -23,189 95,151 58,-15 10,-197 74,-197 52,0 -18,212 38,210 92,-17 16,358 199,321 92,-81 -101,-408 78,-531 4,37 30,37 76,0 l 313,0 c -138,171 -26,263 226,0 l 74,0 917,0 100,0 c -49,153 56,375 243,140 38,-48 24,150 198,-73 43,-66 70,-40 40,20 -143,247 -98,404 47,254 94,-129 200,-246 354,-340 l 162,0 c -181,30 -379,199 -478,358 -169,270 -137,375 230,132 178,-122 277,-274 460,-369 18,-12 41,18 18,27 -371,179 -617,738 -903,890 -70,50 -207,6 -317,2 -417,-14 -776,85 -1146,135 -327,45 -635,128 -895,310 -97,68 -178,84 -330,70 -273,-24 -488,-51 -312,111 385,264 550,48 829,103 102,20 220,66 318,101 210,75 482,202 275,259 -459,119 -706,277 -699,485 27,90 83,140 95,98 6,-21 11,-74 72,-147 9,-10 19,-21 30,-33 29,-12 -4,35 -2,48 19,130 274,30 512,66 143,22 301,77 312,219 12,150 -128,193 -351,202 -238,10 -416,135 -204,154 268,-21 495,-55 688,-50 481,14 814,315 878,369 94,79 58,153 -27,213 -144,102 -367,40 -472,92 -270,192 -621,489 -1315,138 -125,-63 -238,-354 -365,-362 -60,-11 -113,21 -137,109 -75,232 13,368 -165,616 -5,12 -65,93 -108,154 -63,90 -79,155 -19,284 125,127 316,93 536,107 152,10 332,44 471,106 z m -893,715 c 55,-75 113,-82 154,-53 30,21 53,18 78,32 46,31 39,55 -56,91 -15,4 -26,14 -46,14 -34,0 -71,-7 -99,-21 -49,-25 -93,-35 -32,-63 z m 173,435 c 189,-134 393,-152 652,-88 118,29 243,79 375,149 117,59 155,122 75,149 -43,14 -102,20 -147,19 -29,0 -49,-4 -66,-11 -68,-26 -127,-82 -195,-111 -33,-14 -70,-26 -110,-35 -167,-39 -384,-36 -504,-29 -100,7 -111,-19 -81,-45 z M 2496,2832 c 10,-46 58,-16 119,52 20,22 34,44 63,55 70,26 16,-124 37,-176 30,-103 50,9 77,152 27,61 50,80 62,-54 -3,-126 4,-253 62,-379 22,-37 24,-65 14,-79 -11,-14 -30,-35 -49,-36 -27,-1 -57,0 -92,36 -142,77 -259,-41 -380,-101 -58,-29 -126,-45 -174,-21 -19,10 -35,25 -46,49 -1,1 -2,3 -3,4 -11,12 -20,24 -29,37 -69,101 -54,201 22,299 93,74 175,185 262,277 26,44 63,54 75,34 17,-29 -30,-103 -20,-149 z m -155,864 c 42,5 48,-8 49,-27 0,-14 -2,-23 -7,-31 -15,-27 -34,-43 -59,-60 -163,-118 -323,-138 -477,-6 -52,53 -57,103 -3,121 52,18 60,21 96,22 154,4 232,-37 401,-19 z m 1472,-54 c -45,8 -61,-4 -46,-36 13,-40 54,-77 107,-113 21,-31 61,-39 134,-34 146,8 287,44 418,138 58,48 36,69 -59,64 -412,27 -382,-17 -554,-20 z m 1803,1323 c -16,-231 6,-331 111,-334 160,-5 270,234 269,593 -1,197 -45,456 -163,785 -134,219 -191,119 -125,-184 50,-183 -80,-548 -92,-861 z m 265,1123 c 82,-156 187,-297 272,-459 31,-56 60,-37 75,27 7,32 -4,71 -33,109 -27,37 -61,70 -90,106 -70,89 -152,153 -200,214 -24,30 -48,46 -24,2 z"
   id="path13"
   style="fill:#9fbecb" />
   <g
   id="g15">
    <path
   d="m 6854,0 c 128,287 285,548 507,752 97,515 34,928 4,1191 -80,715 -333,637 -319,1318 379,245 269,795 -100,1440 -34,261 -168,483 -358,681 -34,807 76,1588 542,2303 L 8268,8091 8268,1 6854,0 z"
   id="path17"
   style="fill:#e31e24" />
    <path
   d="m 4000,6707 c -68,-41 -98,-105 -53,-120 38,-13 82,-35 122,-40 92,-12 182,37 322,34 107,-15 156,76 36,170 -71,46 -130,109 -212,137 -115,14 -140,-114 -215,-182 z m 459,-1612 c -156,-60 -121,-118 -16,-174 303,-161 579,-7 517,349 -41,124 -94,116 -155,33 -105,-87 -220,-157 -346,-207 z M 1537,543 C 1518,443 1401,332 1480,244 l 99,-57 c 66,-30 102,-6 130,31 19,16 59,74 112,73 40,14 65,43 57,104 35,192 11,334 54,455 83,232 262,349 550,335 34,-2 55,-14 59,-47 22,-165 -52,-262 -192,-293 -43,-10 -30,-26 -36,-69 -13,-98 -33,-173 -59,-232 -64,-146 -35,-15 -26,53 14,109 31,219 32,324 0,73 -2,68 -35,6 -31,-57 -54,-119 -70,-187 -16,-70 -19,-147 -29,-17 -4,58 2,115 14,172 7,31 10,53 30,77 8,9 17,21 24,34 14,29 14,62 -30,41 -346,-164 -164,-475 -255,-709 129,-58 54,-161 81,-242 23,-65 66,-32 130,99 100,206 136,6 245,-118 38,-40 73,-49 93,-17 78,126 122,287 209,426 24,39 57,72 85,110 111,157 252,257 465,282 182,0 182,-250 416,-219 146,48 252,-46 413,24 121,52 193,141 195,248 1,29 -7,71 -39,82 -7,2 -4,1 -12,4 -25,2 -13,-50 -21,-72 -36,-99 -94,-147 -191,-105 -30,19 -3,-61 -28,-52 -129,155 -196,199 -189,110 2,-31 13,-37 -17,-16 -66,46 -106,49 -94,-39 6,-40 10,-55 -22,-88 -81,-84 -164,161 -387,299 -143,89 -266,155 -309,-83 -48,-27 -45,-132 -107,-120 -50,4 109,277 44,276 -64,-166 -113,-215 -146,-148 -12,70 6,133 -36,211 -97,207 320,-1 606,18 -193,75 -299,174 -475,234 -94,32 -204,55 -304,67 -215,25 -444,-28 -621,30 -179,100 -69,298 -23,486 30,120 37,201 -84,365 -69,162 402,389 424,630 23,98 70,144 129,160 102,29 185,140 196,69 -28,-124 1,-137 86,-39 102,78 52,-71 78,-107 9,-77 41,-61 96,47 31,82 82,83 98,-140 8,-115 36,9 29,75 -13,120 124,119 110,-19 -8,-64 74,11 176,137 65,80 136,77 181,113 267,-64 500,-71 692,-49 364,41 600,137 688,238 6,7 10,14 16,20 51,62 -6,129 -42,172 -41,48 -89,57 -223,84 -313,94 -765,529 -1312,162 -116,-78 -259,-371 -386,-379 -60,-11 -109,9 -133,96 -75,232 -45,447 -224,695 -5,12 -40,60 -83,121 -63,90 -133,213 -73,342 164,166 518,53 804,177 -187,127 -189,391 -297,432 20,49 -4,82 -91,91 -43,5 -79,17 -119,34 -127,55 -233,145 -170,200 55,47 103,87 144,128 46,-31 95,-61 202,-94 91,-28 251,-85 340,-41 45,23 12,52 -28,65 -31,10 35,119 45,144 -115,44 -300,25 -416,70 -48,-10 -67,29 -130,37 -195,25 -319,207 -130,205 244,26 672,-63 731,78 -44,107 283,135 413,282 98,119 -33,182 -198,157 -102,-16 -91,-45 -296,-130 -71,8 -89,-89 -198,-48 -37,14 -78,10 -125,32 -37,17 -116,74 -140,107 -50,66 -13,165 115,168 213,12 221,201 412,299 93,109 405,172 622,123 72,-16 148,-57 227,-139 175,-156 370,-258 569,-291 -244,138 -450,302 -680,488 -10,8 -25,8 -38,12 -93,24 -211,24 -370,-15 -163,-40 -335,-138 -635,-261 -272,-109 -153,147 -242,221 -119,112 -246,81 -347,-66 -212,-308 -315,-698 -396,-1043 -63,-267 -54,-491 -95,-666 -170,-728 -310,-763 -286,-1272 -17,-315 233,-545 19,-750 -177,-237 -70,-379 -13,-537 40,-108 45,-231 23,-344 -10,-51 -24,-109 -41,-187 -137,-624 -211,-1192 40,-1940 z m 999,6990 2443,-164 c -87,373 388,287 82,600 -239,169 -225,308 -79,387 62,54 239,88 149,199 -465,330 -721,685 -836,1057 L 3151,9966 2536,7532 z M 3813,3643 c -45,8 -61,-4 -46,-36 13,-40 54,-77 107,-113 21,-31 61,-39 134,-34 146,8 287,44 418,138 58,48 36,69 -59,64 -412,27 -382,-17 -554,-20 z m -1472,54 c 42,5 48,-8 49,-27 0,-14 -2,-23 -7,-31 -15,-27 -34,-43 -59,-60 -163,-118 -323,-138 -477,-6 -52,53 -57,103 -3,121 52,18 60,21 96,22 154,4 232,-37 401,-19 z"
   id="path19"
   style="fill:#e31e24" />
    <path
   d="m 6854,0 c 128,287 285,548 507,752 97,515 34,928 4,1191 -80,715 -333,637 -319,1318 379,245 269,795 -100,1440 -34,261 -168,483 -358,681 -34,807 76,1588 542,2303 L 8268,8091 8268,1 6854,0 z"
   id="path21"
   style="fill:#e31e24" />
   </g>
   <path
   d="m 2143,3477 c -77,0 -139,62 -139,139 0,77 62,139 139,139 77,0 139,-62 139,-139 0,-77 -62,-139 -139,-139 z m 2035,-95 c -107,0 -195,87 -195,195 0,107 87,195 195,195 107,0 195,-87 195,-195 0,-107 -87,-195 -195,-195 z"
   id="path23"
   style="fill:#e31e24" />
   <path
   d="m 1759,1311 c 66,-82 174,-136 308,-174 -135,-52 -230,-138 -311,-243 -15,-19 -25,-56 -34,-21 -5,19 5,24 16,40 108,147 133,174 106,241 -28,70 -80,19 -139,-109 -14,-30 -14,-49 -24,-8 -5,19 2,27 9,45 35,80 69,138 68,229 z m 2054,2330 c -45,8 -61,-4 -46,-36 13,-40 54,-77 107,-113 21,-31 61,-39 134,-34 146,8 287,44 418,138 58,48 36,69 -59,64 -412,27 -382,-17 -554,-20 z m -1472,54 c 42,5 48,-8 49,-27 0,-14 -2,-23 -7,-31 -15,-27 -34,-43 -59,-60 -163,-118 -323,-138 -477,-6 -52,53 -57,103 -3,121 52,18 60,21 96,22 154,4 232,-37 401,-19 z m 1268,123 c -86,40 232,83 289,188 -319,-14 -476,-9 -715,-148 -293,-170 -359,-445 -333,-772 56,33 35,183 159,220 37,11 63,1 100,0 83,-3 76,45 137,42 61,3 74,-11 145,-36 267,-64 500,-71 692,-49 364,41 600,137 688,238 6,7 10,14 16,20 51,62 -6,129 -42,172 -41,48 -89,57 -223,84 -501,207 -708,24 -913,41 z M 1564,3410 c -19,18 30,72 73,148 8,15 24,29 24,47 -1,58 42,50 29,151 -14,62 25,51 61,29 28,-17 57,-39 44,-69 -1,-3 -1,-7 -1,-10 -1,-17 7,-11 22,-4 26,13 55,28 105,34 40,5 68,22 156,8 19,-3 10,0 20,15 6,9 10,18 -21,35 -30,47 81,92 195,45 38,-33 84,-37 123,-17 48,24 88,16 128,-19 115,-99 3,-288 44,-302 -7,-74 141,-44 129,-92 1,-29 -3,-39 2,-71 6,-38 0,-43 -24,-44 -18,-1 -51,-2 -69,8 -44,24 -58,44 -115,-13 -63,-8 -85,22 -118,40 -51,27 -67,73 -174,67 -211,6 -386,-145 -633,17 z m 682,1560 c 118,200 426,-2 889,11 204,9 104,114 288,94 -73,113 -205,115 -320,136 -75,14 -107,36 -157,82 -66,60 -140,57 -192,109 -19,28 -48,35 -101,-6 -75,-75 -148,-197 -256,-222 -11,-3 -23,-4 -34,-4 -2,-1 -5,-2 -7,-2 -34,-12 -60,-28 -79,-48 -34,-36 -44,-86 -31,-149 z m -92,1120 c 59,-8 109,-26 151,-53 31,-20 54,-50 83,-69 20,-13 52,-22 113,-17 12,1 25,2 39,4 2,0 4,1 6,1 102,28 202,19 300,-15 158,25 316,-11 475,75 120,67 241,108 364,104 21,-1 79,5 94,-5 29,-18 21,-79 -46,-85 -59,20 -254,-113 -325,-146 -130,-60 -259,-119 -389,-100 -121,18 -221,25 -320,96 -26,9 -52,12 -77,0 -97,-41 -197,-54 -299,-53 -182,24 -124,170 -168,263 z m 366,210 c 274,99 536,-191 864,302 29,41 8,89 -88,52 -108,-52 -218,-98 -330,-130 -59,-17 -61,-38 -151,-17 -25,6 -49,-14 -71,-61 -66,-123 -226,57 -255,-86 -5,-39 7,-57 31,-60 z m 773,-5095 c 542,-30 870,-138 1306,-187 168,-19 336,-33 505,-38 105,5 159,-42 199,-105 43,-66 180,-176 126,-202 -31,6 -81,56 -106,68 -81,40 -116,41 -157,54 -91,28 -89,-18 -7,-148 30,-47 121,-127 94,-138 -10,-34 -60,42 -85,55 -124,70 -150,23 -117,-95 10,-35 74,-146 -8,-96 -79,49 -201,228 -263,278 -130,105 -185,112 -193,57 -11,-75 40,-122 84,-177 28,-34 52,-68 57,-88 11,-52 -54,10 -62,17 -182,160 -360,305 -464,197 -46,-47 -22,-72 -96,-70 -173,6 -345,87 -480,11 -85,-23 -130,8 -168,48 -43,46 -82,83 -117,133 -30,44 -75,65 -129,46 -96,-33 -176,-40 -252,-103 -26,-22 -54,-46 -87,-72 -59,-46 -94,-84 -134,-149 C 2654,364 2589,190 2535,-3 l -142,0 c -27,0 -77,116 -103,149 -186,232 -166,-119 -271,-109 -103,31 -12,252 -87,201 -56,-16 -42,-88 -154,-59 -27,7 -21,6 -42,-10 -41,-32 -108,-43 -253,16 -60,1 -23,-76 59,-188 L 1,-3 l 0,11692 8268,0 0,-3605 -1140,-402 c -46,137 -65,279 -361,465 l -1217,765 c -225,142 -745,81 -1073,192 -227,-178 83,-193 -10,-235 -273,-196 -43,-352 513,-518 -151,-84 -139,-227 81,-386 -41,-161 -252,-160 -175,-434 33,-119 109,-179 189,-271 247,-287 449,-596 602,-929 -107,118 -250,126 -405,99 -62,-11 -54,-15 -92,36 -155,207 -343,361 -582,433 -244,138 -450,302 -680,488 -10,8 -25,8 -38,12 -93,24 -211,24 -370,-15 -163,-40 -335,-138 -635,-261 -272,-109 -153,147 -242,221 -119,112 -246,81 -347,-66 -212,-308 -315,-698 -396,-1043 -63,-267 -54,-491 -95,-666 -170,-728 -310,-763 -286,-1272 -17,-315 233,-545 19,-750 -177,-237 -70,-379 -13,-537 40,-108 45,-231 23,-344 -10,-51 -24,-109 -41,-187 -137,-624 -211,-1192 40,-1940 -19,-100 -136,-211 -57,-299 l 99,-57 c 66,-30 102,-6 130,31 19,16 59,74 112,73 40,14 65,43 57,104 35,192 11,334 54,455 83,232 262,349 550,335 34,-2 55,-14 59,-47 22,-165 -52,-262 -192,-293 -43,-10 -30,-26 -36,-69 -13,-98 -33,-173 -59,-232 -64,-146 -35,-15 -26,53 14,109 31,219 32,324 0,73 -2,68 -35,6 -31,-57 -54,-119 -70,-187 -16,-70 -19,-147 -29,-17 -4,58 2,115 14,172 7,31 10,53 30,77 8,9 17,21 24,34 14,29 14,62 -30,41 -346,-164 -164,-475 -255,-709 129,-58 54,-161 81,-242 23,-65 66,-32 130,99 100,206 136,6 245,-118 38,-40 73,-49 93,-17 78,126 122,287 209,426 24,39 57,72 85,110 111,157 252,257 465,282 182,0 182,-250 416,-219 146,48 252,-46 413,24 121,52 193,141 195,248 1,29 -7,71 -39,82 -7,2 -4,1 -12,4 -25,2 -13,-50 -21,-72 -36,-99 -94,-147 -191,-105 -30,19 -3,-61 -28,-52 -129,155 -196,199 -189,110 2,-31 13,-37 -17,-16 -66,46 -106,49 -94,-39 6,-40 10,-55 -22,-88 -81,-84 -164,161 -387,299 -143,89 -266,155 -309,-83 -48,-27 -45,-132 -107,-120 -50,4 109,277 44,276 -64,-166 -113,-215 -146,-148 -12,70 6,133 -36,211 -97,207 320,-1 606,18 z m -478,6525 c 134,840 357,1341 531,2007 164,-29 325,-91 491,-86 189,6 224,-39 336,-59 20,-8 24,-38 27,-72 2,-26 23,-59 7,-77 -8,-6 -16,-12 -24,-18 -260,-196 -500,-329 -519,-395 l -454,-757 c -39,-86 -91,-144 -113,-235 -13,-51 -23,-101 -37,-142 -49,-147 -144,-290 -215,-239 -14,10 -23,35 -29,72 z M 4641,5110 c -70,-27 -54,-53 -7,-78 53,-28 105,-8 161,-19 29,-5 49,9 61,35 10,22 7,53 5,90 -2,33 8,74 -21,97 -15,13 -32,1 -47,-15 -47,-39 -96,-88 -152,-111 z m -275,1648 c 43,-28 44,-64 29,-90 -18,-27 -24,-44 -80,-37 -55,7 -119,-4 -147,0 -31,5 -56,22 -37,126 4,23 32,68 75,62 58,5 112,-30 160,-61 z M 6540,3794 c 52,-22 102,-19 149,20 -20,-332 284,-451 475,-18 49,-310 -108,-415 -203,-436 -63,-14 -161,20 -256,128 -60,69 -109,242 -166,306 z m 124,1208 c -263,128 -424,68 -543,-114 26,132 -94,230 -16,415 2,4 5,8 5,12 7,110 37,173 134,245 l 174,-339 c -75,-2 -123,-17 -149,-42 -18,-18 -25,-40 -23,-67 39,-31 36,52 107,50 165,-4 221,-90 311,-159 z M 5458,2771 c 238,261 453,497 683,526 36,5 14,-39 -106,-156 218,106 422,180 581,143 -121,158 -317,138 -534,69 -32,-10 -58,6 -2,51 123,94 262,135 427,98 -124,158 -294,304 -277,138 -222,-308 -376,-313 -429,-411 -140,-197 -212,-176 -261,-236 -62,-77 -27,-109 -81,-224 z m 1013,1228 c -201,-278 -277,10 -103,0 171,176 25,257 198,396 6,4 11,10 18,14 37,17 72,12 106,12 45,0 88,1 123,-21 89,-57 133,-180 85,-306 -23,-180 -200,-14 -316,-103 -58,-40 -109,-66 -111,9 z"
   id="path25"
   style="fill:#37546d" />
   <path
   d="m 715,8662 0,-413 150,0 0,413 -150,0 z m 204,-428 83,0 51,99 -47,0 -87,-99 z m 191,428 0,-413 148,0 0,280 145,0 0,133 -293,0 z m 335,0 0,-413 148,0 0,280 145,0 0,133 -293,0 z m 497,0 0,-413 197,0 c 42,0 76,9 100,28 24,19 36,44 36,74 0,28 -5,49 -16,62 -11,14 -27,25 -50,34 56,14 83,45 83,94 0,80 -51,120 -154,120 l -197,0 z m 171,-258 c 19,0 28,-10 28,-30 0,-9 -2,-15 -7,-20 -5,-4 -11,-6 -19,-6 l -34,0 0,56 32,0 z m 4,155 c 22,0 34,-11 34,-32 0,-21 -12,-32 -36,-32 l -34,0 0,64 37,0 z m 214,103 0,-413 276,0 0,113 -131,0 0,39 118,0 0,106 -118,0 0,43 133,0 0,111 -279,0 z"
   id="path27"
   style="fill:#e31e24;fill-rule:nonzero" />
   <path
   d="m 666,10738 0,-1786 0,-56 55,0 855,0 c 97,0 184,11 261,32 79,22 147,56 206,101 59,46 104,99 134,161 30,61 45,130 45,206 0,134 -27,235 -81,304 -27,34 -61,65 -102,93 -5,3 -10,7 -16,10 20,9 40,19 58,30 143,85 214,214 214,387 0,383 -241,574 -723,574 l -852,0 -55,0 0,-56 z m 111,-1731 0,1675 796,0 c 408,0 612,-154 612,-463 0,-131 -53,-228 -160,-292 -22,-13 -46,-24 -72,-35 -27,-11 -56,-20 -87,-28 l 0,0 -169,-42 163,-63 c 46,-18 85,-38 118,-60 31,-21 57,-44 76,-69 38,-49 57,-127 57,-236 0,-59 -11,-111 -34,-157 -22,-46 -56,-87 -102,-122 -47,-36 -103,-63 -168,-81 -67,-19 -144,-28 -231,-28 l -799,0 z m 683,559 c 25,0 41,-5 51,-15 10,-11 15,-31 15,-59 0,-22 -4,-36 -12,-43 l 0,0 0,0 0,0 c -1,-1 -3,-2 -4,-3 -2,-1 -3,-2 -5,-3 -10,-5 -23,-8 -39,-8 l -91,0 0,131 85,0 z m 131,61 c -31,33 -75,50 -131,50 l -141,0 -56,0 0,-56 0,-243 0,-56 56,0 146,0 c 34,0 64,7 90,21 5,3 11,6 16,9 5,3 9,7 14,11 l 0,0 0,0 0,0 c 34,30 51,72 51,127 0,58 -15,103 -46,135 z m -112,612 c 34,0 58,-7 71,-20 13,-12 19,-34 19,-66 l 0,0 0,0 c 0,-29 -7,-50 -20,-62 -16,-14 -43,-21 -81,-21 l 0,0 0,0 -93,0 0,167 104,0 z m 148,60 c -35,34 -85,51 -148,51 l -160,0 -56,0 0,-56 0,-278 0,-56 56,0 149,0 0,0 0,0 c 66,0 118,16 154,48 39,34 58,82 58,145 l 0,0 0,0 c 0,62 -18,111 -54,145 z m 577,421 631,-1786 13,-37 39,0 714,0 39,0 13,37 626,1786 26,74 -78,0 -692,0 -43,0 -10,-43 -45,-184 -396,0 -47,184 -11,42 -43,0 -684,0 -78,0 26,-74 z m 723,-1713 -592,1675 562,0 47,-184 11,-42 43,0 482,0 44,0 10,42 45,184 570,0 -587,-1675 -635,0 z m 375,1025 -65,-304 -65,304 130,0 z m -4,-549 127,593 14,67 -69,0 -267,0 -69,0 14,-67 127,-593 9,-44 45,0 14,0 45,0 9,44 z m 1975,67 c -85,0 -156,25 -212,76 l 0,0 0,0 c -7,7 -14,14 -21,22 -7,8 -13,16 -18,24 -29,44 -43,101 -43,169 l 0,0 c 0,79 23,150 70,212 21,28 48,49 81,63 35,15 76,22 125,22 l 0,0 0,0 c 59,0 118,-12 179,-37 8,-3 18,-8 30,-13 53,-25 106,-59 159,-102 l 94,-76 -3,120 -19,670 -1,40 -38,12 c -186,57 -333,85 -441,85 -166,0 -326,-37 -480,-110 -78,-37 -148,-84 -211,-139 -63,-56 -118,-121 -166,-195 -48,-75 -84,-158 -108,-249 -24,-90 -36,-188 -36,-294 l 0,0 c 0,-166 35,-324 106,-476 36,-77 82,-146 137,-208 56,-62 121,-117 196,-164 l 0,0 c 38,-24 78,-45 121,-63 43,-18 87,-33 134,-45 93,-23 194,-35 304,-35 l 0,0 0,0 c 74,0 149,7 224,22 10,2 22,5 37,8 64,14 128,34 194,59 l 36,14 0,38 0,664 0,137 -95,-98 c -50,-52 -103,-91 -159,-116 -54,-25 -112,-38 -173,-38 z m -287,-6 c 78,-70 173,-106 287,-106 77,0 150,16 219,48 33,15 66,34 97,57 l 0,-504 c -48,-17 -96,-31 -143,-41 -9,-2 -20,-4 -34,-7 -70,-14 -137,-21 -203,-21 l 0,0 0,0 c -101,0 -194,11 -277,32 -42,11 -81,24 -118,39 -37,15 -72,34 -105,54 l 0,0 c -67,42 -124,90 -173,144 -49,54 -88,114 -120,181 -63,136 -95,279 -95,429 l 0,0 c 0,96 11,185 32,266 21,80 52,152 94,217 42,66 91,123 146,172 55,49 117,90 185,122 138,66 282,99 432,99 91,0 214,-23 370,-69 l 15,-518 c -29,19 -58,35 -87,49 -10,5 -22,10 -36,16 -74,30 -147,45 -221,45 l 0,0 0,0 c -64,0 -120,-10 -168,-31 -51,-22 -92,-55 -125,-98 -62,-81 -92,-174 -92,-279 l 0,0 c 0,-90 20,-167 61,-230 8,-13 17,-24 27,-36 9,-11 20,-22 31,-32 l 0,0 0,0 z m 794,1193 0,-1786 0,-55 55,0 631,0 56,0 0,55 0,540 301,-566 16,-30 33,0 728,0 99,0 -52,84 -522,852 595,875 59,87 -105,0 -777,0 -32,0 -16,-28 -327,-567 0,540 0,55 -56,0 -631,0 -55,0 0,-55 z m 111,-1731 0,1676 520,0 0,-692 0,-53 0,-155 0,-68 0,-708 -520,0 z m 625,734 -62,117 61,106 414,719 641,0 -556,-818 -20,-30 19,-30 489,-798 -595,0 -390,734 z"
   id="path29"
   style="fill:#37546d;fill-rule:nonzero" />
   <path
   d="m 721,10738 0,-1786 855,0 c 184,0 328,40 433,121 105,81 157,188 157,323 0,121 -23,211 -69,270 -46,59 -119,108 -218,146 241,61 361,197 361,408 0,346 -222,518 -667,518 l -852,0 z m 739,-1116 c 81,0 121,-43 121,-130 0,-39 -11,-67 -32,-85 -21,-18 -49,-28 -84,-28 l -146,0 0,243 141,0 z m 19,673 c 97,0 146,-47 146,-141 0,-92 -52,-138 -157,-138 l -149,0 0,278 160,0 z m 777,444 631,-1786 714,0 626,1786 -692,0 -55,-226 -482,0 -58,226 -684,0 z m 1114,-651 -127,-593 -14,0 -127,593 267,0 z m 1902,-593 c -99,0 -182,30 -249,91 -67,61 -101,146 -101,256 0,92 27,174 81,245 54,72 137,108 249,108 132,0 266,-55 402,-165 l -19,670 c -180,55 -322,83 -425,83 -158,0 -310,-35 -456,-105 -146,-70 -264,-175 -354,-314 -90,-140 -135,-311 -135,-513 0,-158 34,-309 101,-452 67,-143 171,-260 313,-349 142,-89 318,-134 529,-134 140,0 285,28 436,85 l 0,664 c -110,-114 -234,-171 -372,-171 z m 562,1243 0,-1786 631,0 0,764 405,-764 728,0 -540,882 615,904 -777,0 -430,-747 0,747 -631,0 z"
   id="path31"
   style="fill:#9fbecb;fill-rule:nonzero" />
  </g>
 </g>
</svg>